<?xml version="1.0" standalone="no"?><!-- Generator: Gravit.io --><svg xmlns="http://www.w3.org/2000/svg" xmlns:xlink="http://www.w3.org/1999/xlink" style="isolation:isolate" viewBox="0 0 32 32" width="32" height="32"><defs><clipPath id="_clipPath_AquXVaQnz9kUi7sYCMtD9CVuyTCyi2Ec"><rect width="32" height="32"/></clipPath></defs><g clip-path="url(#_clipPath_AquXVaQnz9kUi7sYCMtD9CVuyTCyi2Ec)"><g id="Group"><path d=" M 3 8.49445 L 16 0.98889 L 16 16 L 3 23.50555 L 3 8.49445 Z " fill="rgb(0,83,47)"/><path d=" M 16 0.98889 L 16 16 L 29 23.50555 L 29 8.49445 L 16 0.98889 Z " fill="rgb(3,157,90)"/><path d=" M 20.55 8.49445 L 20.55 15.64445 L 16 16 L 16 11.09445 L 20.55 8.49445 Z " fill="rgb(185,185,185)"/><path d=" M 11.45 8.49445 L 11.45 16.29445 L 16 16.29445 L 16 11.09445 L 11.45 8.49445 Z " fill="rgb(227,227,227)"/><path d=" M 3 8.49445 L 16 0.98889 L 29 8.49445 L 16 16 L 3 8.49445 Z  M 5.6 8.49445 L 16 2.51445 L 26.4 8.49445 L 16 14.47445 L 5.6 8.49445 Z " fill-rule="evenodd" fill="rgb(138,255,204)"/><path d=" M 11.45 8.49445 L 16 5.89055 L 20.55 8.49445 L 16 11.09445 L 11.45 8.49445 Z " fill="rgb(255,255,255)"/><path d=" M 29 8.49445 L 29 23.50555 L 16 31.01111 L 16 16 L 29 8.49445 Z " fill="rgb(0,104,59)"/><path d=" M 3 8.49445 L 3 23.50555 L 16 31.01111 L 16 16 L 3 8.49445 Z " fill="rgb(1,222,125)"/></g></g></svg>